<svg id="hello" enable-background="new 0 0 300 300" height="512" viewBox="0 0 300 300" width="512" xmlns="http://www.w3.org/2000/svg"><path d="m204 104c-4.78 0-9.066 2.118-12 5.453-2.934-3.334-7.22-5.453-12-5.453-2.916 0-5.643.797-8 2.165v-44.165c0-9.925-8.075-18-18-18s-18 8.075-18 18v40.579l-6.608-37.871c-1.67-9.567-10.512-15.961-20.115-14.567l-1.11.162c-4.848.706-9.085 3.29-11.932 7.276-2.848 3.987-3.916 8.834-3.01 13.65l11.447 60.783-8.667-.012c-.001 0-.003 0-.005 0-.288 0-.568.034-.839.091-8.446.528-15.161 7.547-15.161 16.124v44.72c0 14.358 3.454 28.706 9.989 41.492 6.8 13.307 20.309 21.573 35.253 21.573h48.462c25.527 0 46.296-20.769 46.296-46.296v-41.704-8-40c0-8.822-7.178-16-16-16zm0 8c4.411 0 8 3.589 8 8v40 8c0 4.411-3.589 8-8 8s-8-3.589-8-8v-1.358-46.642c0-4.411 3.589-8 8-8zm-24 0c4.411 0 8 3.589 8 8v46.642 1.358c0 4.411-3.589 8-8 8s-8-3.589-8-8v-48c0-4.411 3.589-8 8-8zm-78.914-42.251c-.499-2.653.09-5.324 1.658-7.521s3.903-3.62 6.574-4.008l1.11-.162c5.303-.772 10.162 2.756 11.082 8.025l11.78 67.505c-2.224-.988-4.679-1.548-7.265-1.548l-13.212-.018zm72.618 178.251h-48.462c-11.925 0-22.703-6.596-28.13-17.214-5.961-11.664-9.112-24.753-9.112-37.851v-44.72c0-4.508 3.667-8.175 8.175-8.175.133 0 .259-.027.389-.039l29.456.039c5.503 0 9.979 4.477 9.979 9.98s-4.477 9.98-9.979 9.98h-18.02c-1.122 0-2.193.472-2.951 1.299-.758.828-1.133 1.936-1.033 3.054.061.686 1.67 16.911 17.366 27.375 10.554 7.036 12.329 10.938 12.531 11.47.254 1.964 1.934 3.482 3.967 3.482 2.209 0 4-1.791 4-4 0-2.075-1.564-7.944-16.061-17.608-8.027-5.352-11.438-12.53-12.858-17.072h13.06c9.914 0 17.979-8.066 17.979-17.98 0-.454-.035-.899-.068-1.344.038-.221.068-.445.068-.676v-86c0-5.514 4.486-10 10-10s10 4.486 10 10v58 48c0 8.822 7.178 16 16 16 4.78 0 9.066-2.118 12-5.453 2.934 3.334 7.22 5.453 12 5.453 2.916 0 5.643-.797 8-2.165v27.869c0 21.116-17.18 38.296-38.296 38.296z"/></svg>